<!DOCTYPE svg PUBLIC "-//W3C//DTD SVG 1.1//EN" "http://www.w3.org/Graphics/SVG/1.1/DTD/svg11.dtd">
<!-- Uploaded to: SVG Repo, www.svgrepo.com, Transformed by: SVG Repo Mixer Tools -->
<svg fill="#000000" height="800px" width="800px" version="1.1" id="Layer_1" xmlns="http://www.w3.org/2000/svg" xmlns:xlink="http://www.w3.org/1999/xlink" viewBox="-50.44 -50.44 605.28 605.28" xml:space="preserve">
<g id="SVGRepo_bgCarrier" stroke-width="0">
<path transform="translate(-50.44, -50.44), scale(18.915)" d="M16,26.716447602957487C19.48944840212445,26.84360399773875,23.111482723028555,26.131139499746222,25.429482859864983,23.51976165166507C27.884058295592094,20.75452285057943,28.658218095465543,16.902148577531165,27.92941188017162,13.2771895850385C27.175261728725978,9.526174135657236,24.995301513675805,6.137115473570227,21.58566303320895,4.401251197498484C18.086083380578355,2.619597413652979,13.82212351579161,2.441829201276107,10.38813126049509,4.346834487662624C7.147167413550042,6.1447573722862465,5.735610092161024,9.863455459862216,5.144083964453328,13.522208006359083C4.606322884703518,16.848408875230557,5.253834151282357,20.260670709958955,7.394613917748227,22.862566401654792C9.495572609690106,25.416063708862104,12.695476508687287,26.59602991935755,16,26.716447602957487" fill="#ffffff" strokewidth="0"/>
</g>
<g id="SVGRepo_tracerCarrier" stroke-linecap="round" stroke-linejoin="round"/>
<g id="SVGRepo_iconCarrier"> <g> <g> <path d="M254.8,119.4c-71.6,0-129.6,57.6-129.6,128.8c0,28,9.2,54.4,24.8,75.6l-16.4,48l50-16c20.4,13.6,45.2,21.2,71.6,21.2 c71.6,0,130-57.6,130-128.8C384.8,177,326.4,119.4,254.8,119.4z M330.8,301.4c-3.2,8.8-18.8,17.2-25.6,18s-6.8,5.6-45.6-9.2 c-38.4-15.2-62.8-54-64.8-56.8c-2-2.4-15.6-20.4-15.6-38.8c0-18.4,9.6-27.6,13.2-31.2c3.6-3.6,7.6-4.8,10-4.8 c2.4,0,5.2,0.4,7.2,0.4c2.4,0,5.2-1.2,8.4,6.4c3.2,7.6,10.8,26,11.6,28s1.6,4,0.4,6.4c-1.2,2.4-2,4-3.6,6.4c-2,2-4,4.8-5.6,6.4 c-2,2-4,4-1.6,7.6c2.4,3.6,10,16,21.2,26c14.4,12.8,26.8,16.8,30.4,18.8c3.6,2,6,1.6,8-0.8c2.4-2.4,9.6-10.8,12-14.8 c2.4-3.6,5.2-3.2,8.4-2c3.6,1.2,22,10.4,26,12.4c3.6,2,6.4,2.8,7.2,4.4C333.6,285,333.6,292.6,330.8,301.4z"/> </g> </g> <g> <g> <path d="M377.6,0.2H126.4C56.8,0.2,0,57,0,126.6v251.6c0,69.2,56.8,126,126.4,126H378c69.6,0,126.4-56.8,126.4-126.4V126.6 C504,57,447.2,0.2,377.6,0.2z M254.8,401.4c-27.2,0-52.4-6.8-74.8-19.2l-85.6,27.2l28-82c-14-23.2-22-50.4-22-79.2 c0-84.8,69.2-153.2,154.4-153.2s154.4,68.4,154.4,153.2S340,401.4,254.8,401.4z"/> </g> </g> </g>
</svg>